<?xml version="1.0" ?><!DOCTYPE svg  PUBLIC '-//W3C//DTD SVG 1.1//EN'  'http://www.w3.org/Graphics/SVG/1.1/DTD/svg11.dtd'><svg enable-background="new 0 0 512 512" id="Layer_1" version="1.1" viewBox="0 0 512 512" xml:space="preserve" xmlns="http://www.w3.org/2000/svg" xmlns:xlink="http://www.w3.org/1999/xlink"><g><path d="M64,6.7c16.2,5.5,31.4,10.6,46.7,15.8c20.6,7,41.2,14.3,62,20.9c5.1,1.6,5.9,4.5,5.9,9c0,29,0.1,58,0.2,87   c0.4,73.3,0.8,146.7,1.2,220c0,1,0.1,2,0.2,3.8c52.6-27.7,104.8-55.1,158-83.1c-7.6-3.5-14.2-6.7-21-9.7c-16.7-7.5-33.4-15-50-22.6   c-2.1-1-4.3-2.7-5.3-4.7c-16-34.2-31.8-68.5-47.6-102.8c-0.5-1-0.8-2.1-1.5-4.1c6.3,1.9,12,3.5,17.6,5.3   c51.7,15.8,103.4,31.7,155.1,47.6c24.8,7.6,49.6,15.3,74.4,22.8c2.6,0.8,3.4,1.9,3.4,4.5c-0.1,38.7-0.1,77.3,0.1,116   c0,4.1-2.9,5-5.3,6.4c-35.1,21-70.3,41.9-105.5,62.8c-57.1,34-114.1,67.9-171.2,102c-2.6,1.5-4.4,2-7.1,0.1   c-35.8-25.2-71.7-50.2-107.5-75.5c-1.7-1.2-2.8-4.4-2.8-6.6c0-102.1,0-203.9,0-305.8c0-34.3,0-68.7,0-103C64,11,64,9.2,64,6.7z"/></g></svg>