<?xml version="1.0" ?><!DOCTYPE svg  PUBLIC '-//W3C//DTD SVG 1.1//EN'  'http://www.w3.org/Graphics/SVG/1.1/DTD/svg11.dtd'><svg enable-background="new 0 0 512 512" id="Layer_1" version="1.1" viewBox="0 0 512 512" xml:space="preserve" xmlns="http://www.w3.org/2000/svg" xmlns:xlink="http://www.w3.org/1999/xlink"><g><path d="M260.7,506c-51.8,0-103.6,0-155.5,0c-7,0-7,0-7-7.2c0-63.7,0-127.3,0-191c0-6.8,0-6.8,6.9-6.8   c7.2,0,14.3,0.3,21.5-0.1c4.4-0.2,5.6,1,5.6,5.5c-0.2,46.2-0.1,92.3-0.1,138.5c0,7.3,0.2,14.7-0.1,22c-0.2,4.2,1.2,5.3,5.4,5.3   c55.8-0.1,111.6-0.1,167.5-0.1c26,0,52-0.1,78,0.1c4.9,0,6.5-1,6.4-6.3c-0.2-53-0.1-106-0.2-159c0-4.8,1.2-6.3,6.1-6.1   c7.5,0.4,15,0.4,22.5,0c4.6-0.2,5.5,1.4,5.5,5.6c-0.1,49.8-0.1,99.6-0.1,149.5c0,14.3,0,28.7,0,43c0,6.9,0,6.9-6.8,6.9   C364.3,506,312.5,506,260.7,506z" fill="#BCBBBB"/><path d="M452,9.2c3.5-0.8,3.2,1.7,3.6,3.6c3.1,18,6.2,36.1,9.4,54.1c7.5,43.3,15,86.6,22.7,129.8   c0.8,4.3-0.4,5.5-4.2,6.1c-10.5,1.6-21.1,3.2-31.5,5.4c-4.5,1-5.2-0.7-5.8-4.4c-3.8-22.8-7.8-45.6-11.8-68.4   c-6.5-37.2-12.9-74.4-19.4-111.7c-1.4-7.8-1.5-7.8,6.4-9.3C431.6,12.6,441.9,11,452,9.2z" fill="#F38126"/><path d="M439,210.9c-0.1,1.6-1.4,2-2.3,2.6c-9.6,6.6-19.3,13-28.8,19.8c-3.5,2.5-4.2-0.1-5.6-2   c-26-38.1-52-76.2-78-114.4c-9.1-13.3-18.1-26.7-27.4-40c-1.9-2.7-2.2-4.1,1-6.2c9.4-6.1,18.5-12.4,27.7-18.8   c2.4-1.7,3.8-2.1,5.9,0.9c35.2,51.8,70.5,103.5,105.8,155.3C437.9,209,438.5,210,439,210.9z" fill="#F38126"/><path d="M360,351.1c-0.9,9.3-1.9,19.6-2.7,29.9c-0.2,3.2-1.3,4.2-4.6,3.9c-40.1-3.8-80.2-7.4-120.3-11.1   c-21.7-2-43.4-4.1-65.1-5.9c-4.3-0.4-5.9-1.7-5.3-6.4c1.4-10.7,2.3-21.5,3.1-32.3c0.2-3.2,1.3-3.6,4.3-3.4   c45.6,4.2,91.1,8.3,136.7,12.4c15.9,1.4,31.8,3,47.7,4.6C360.4,343.4,360.4,343.5,360,351.1z" fill="#F38126"/><path d="M397.7,241.7c-0.5,0.8-0.9,1.7-1.4,2.5c-5.7,9.6-11.4,19.2-16.9,28.9c-1.7,3-3.1,3.5-6.2,1.7   c-53.9-31.9-107.8-63.7-161.7-95.4c-3-1.8-2.9-3.1-1.3-5.7c5.8-9.5,11.5-19.1,17-28.8c1.6-2.8,2.8-3.3,5.8-1.6   c54,32,108.1,63.8,162.1,95.7C396.1,239.6,397.7,239.9,397.7,241.7z" fill="#F38126"/><path d="M186.3,238.4c14.5,3.9,28.8,7.8,43.1,11.6c46.4,12.5,92.8,25,139.2,37.3c4.1,1.1,4.9,2.5,3.7,6.5   c-3.1,10.4-5.8,20.8-8.5,31.3c-0.7,2.9-1.5,4.1-5,3.1c-60.3-16.4-120.7-32.6-181-48.7c-3.6-1-4.4-2.1-3.3-5.8   c3.1-10.7,5.8-21.5,8.7-32.3C183.6,239.8,183.7,237.5,186.3,238.4z" fill="#F38126"/><path d="M257.5,439c-30.8,0-61.6-0.1-92.4,0.1c-4.2,0-5.3-1.2-5.2-5.3c0.3-10.8,0.2-21.7,0-32.5   c-0.1-3.3,1-4.2,4.3-4.2c62.5,0.1,124.9,0,187.4-0.1c3.6,0,4.5,1.2,4.4,4.6c-0.2,10.8-0.2,21.7,0,32.5c0.1,4-1.2,5-5,5   C319.8,438.9,288.6,438.9,257.5,439C257.5,439,257.5,439,257.5,439z" fill="#F38126"/></g></svg>